<svg xmlns="http://www.w3.org/2000/svg" xmlns:xlink="http://www.w3.org/1999/xlink" width="1280" zoomAndPan="magnify" viewBox="0 0 960 540.000001" height="720" preserveAspectRatio="xMidYMid meet" version="1.0"><defs><filter x="0%" y="0%" width="100%" height="100%" id="a8ac25bdd3"><feColorMatrix values="0 0 0 0 1 0 0 0 0 1 0 0 0 0 1 0 0 0 1 0" color-interpolation-filters="sRGB"/></filter><g/><mask id="db810b76f0"><g filter="url(#a8ac25bdd3)"><rect x="-96" width="1152" fill="#000000" y="-54" height="648.000001" fill-opacity="0.25"/></g></mask><clipPath id="846e81cf3e"><path d="M 0.226562 0 L 905 0 L 905 264.707031 L 0.226562 264.707031 Z M 0.226562 0 " clip-rule="nonzero"/></clipPath><clipPath id="6309cbd49b"><rect x="0" width="906" y="0" height="265"/></clipPath><clipPath id="355eb161be"><path d="M 11 308 L 959.113281 308 L 959.113281 395 L 11 395 Z M 11 308 " clip-rule="nonzero"/></clipPath><clipPath id="616ceb6ff2"><path d="M 751 76.65625 L 938 76.65625 L 938 110 L 751 110 Z M 751 76.65625 " clip-rule="nonzero"/></clipPath><mask id="d6396087c3"><g filter="url(#a8ac25bdd3)"><rect x="-96" width="1152" fill="#000000" y="-54" height="648.000001" fill-opacity="0.25"/></g></mask><clipPath id="b6323c078a"><path d="M 0.65625 1 L 33 1 L 33 33 L 0.65625 33 Z M 0.65625 1 " clip-rule="nonzero"/></clipPath><clipPath id="e374f357b4"><rect x="0" width="35" y="0" height="35"/></clipPath><clipPath id="23d9787855"><path d="M 704 76.65625 L 761 76.65625 L 761 110 L 704 110 Z M 704 76.65625 " clip-rule="nonzero"/></clipPath><clipPath id="adc88129d1"><path d="M 660 76.65625 L 717 76.65625 L 717 110 L 660 110 Z M 660 76.65625 " clip-rule="nonzero"/></clipPath></defs><g mask="url(#db810b76f0)"><g transform="matrix(1, 0, 0, 1, 33, 109)"><g clip-path="url(#6309cbd49b)"><g clip-path="url(#846e81cf3e)"><path fill="#000000" d="M 904.15625 0.988281 L 42.855469 0.988281 L 0.714844 43.128906 L 0.714844 222.304688 L 42.855469 264.503906 L 861.933594 264.503906 L 904.15625 222.304688 Z M 904.15625 0.988281 " fill-opacity="1" fill-rule="evenodd"/></g></g></g></g><g clip-path="url(#355eb161be)"><path fill="#000000" d="M 11.738281 308.0625 L 11.738281 349.160156 L 12.132812 350.125 L 56.640625 394.613281 L 914.230469 394.613281 L 958.71875 350.125 L 959.113281 349.160156 L 959.113281 308.0625 L 956.351562 308.0625 L 956.351562 348.527344 L 913.046875 391.851562 L 57.824219 391.851562 L 14.5 348.527344 L 14.5 308.0625 Z M 11.738281 308.0625 " fill-opacity="1" fill-rule="nonzero"/></g><g clip-path="url(#616ceb6ff2)"><path fill="#000000" d="M 937.15625 76.804688 L 784.511719 76.804688 L 751.410156 109.988281 L 937.15625 109.988281 Z M 937.15625 76.804688 " fill-opacity="1" fill-rule="evenodd"/></g><path fill="#000000" d="M 378.417969 394.214844 L 376.4375 392.234375 L 318.652344 450.015625 L 320.636719 451.996094 Z M 378.417969 394.214844 " fill-opacity="1" fill-rule="nonzero"/><path fill="#000000" d="M 319.605469 449.617188 L 62.558594 449.617188 L 62.558594 452.378906 L 319.605469 452.378906 Z M 319.605469 449.617188 " fill-opacity="1" fill-rule="nonzero"/><path fill="#000000" d="M 33.714844 420.695312 C 32.554688 420.691406 31.398438 420.753906 30.242188 420.882812 C 29.085938 421.011719 27.945312 421.207031 26.8125 421.46875 C 25.679688 421.726562 24.566406 422.050781 23.472656 422.441406 C 22.378906 422.828125 21.308594 423.277344 20.265625 423.789062 C 19.222656 424.296875 18.210938 424.867188 17.234375 425.492188 C 16.253906 426.121094 15.316406 426.800781 14.414062 427.535156 C 13.515625 428.269531 12.660156 429.050781 11.851562 429.882812 C 11.039062 430.714844 10.28125 431.589844 9.570312 432.511719 C 8.859375 433.429688 8.207031 434.386719 7.605469 435.382812 C 7.003906 436.375 6.464844 437.402344 5.980469 438.457031 C 5.5 439.515625 5.078125 440.59375 4.71875 441.699219 C 4.363281 442.804688 4.066406 443.925781 3.835938 445.066406 C 3.609375 446.203125 3.445312 447.351562 3.347656 448.507812 C 3.246094 449.667969 3.214844 450.824219 3.25 451.988281 C 3.285156 453.148438 3.386719 454.304688 3.554688 455.453125 C 3.722656 456.601562 3.953125 457.738281 4.25 458.859375 C 4.546875 459.984375 4.910156 461.085938 5.332031 462.167969 C 5.757812 463.25 6.242188 464.300781 6.785156 465.328125 C 7.332031 466.355469 7.933594 467.34375 8.589844 468.300781 C 9.25 469.257812 9.960938 470.175781 10.726562 471.050781 C 11.488281 471.925781 12.300781 472.753906 13.15625 473.535156 C 14.015625 474.320312 14.917969 475.050781 15.859375 475.726562 C 16.800781 476.40625 17.78125 477.03125 18.792969 477.597656 C 19.808594 478.164062 20.851562 478.671875 21.921875 479.117188 C 22.996094 479.566406 24.089844 479.949219 25.207031 480.269531 C 26.320312 480.59375 27.453125 480.851562 28.597656 481.042969 C 29.742188 481.234375 30.894531 481.359375 32.054688 481.417969 C 33.214844 481.480469 34.375 481.472656 35.535156 481.398438 C 36.695312 481.324219 37.84375 481.1875 38.988281 480.980469 C 40.132812 480.777344 41.257812 480.507812 42.371094 480.171875 C 43.484375 479.835938 44.574219 479.441406 45.640625 478.980469 C 46.707031 478.519531 47.742188 478 48.75 477.421875 C 49.757812 476.84375 50.730469 476.210938 51.664062 475.519531 C 52.597656 474.832031 53.492188 474.089844 54.339844 473.296875 C 55.1875 472.503906 55.992188 471.667969 56.742188 470.785156 C 57.496094 469.898438 58.199219 468.976562 58.84375 468.011719 C 59.492188 467.046875 60.082031 466.046875 60.617188 465.015625 C 61.148438 463.984375 61.621094 462.925781 62.03125 461.839844 C 62.445312 460.753906 62.792969 459.644531 63.074219 458.519531 C 63.359375 457.394531 63.578125 456.253906 63.734375 455.105469 C 63.886719 453.953125 63.976562 452.796875 63.996094 451.636719 C 64.019531 450.472656 63.972656 449.316406 63.859375 448.160156 C 63.75 447.003906 63.574219 445.855469 63.328125 444.71875 C 63.085938 443.585938 62.777344 442.464844 62.40625 441.367188 C 62.035156 440.265625 61.605469 439.191406 61.109375 438.140625 C 60.613281 437.085938 60.0625 436.070312 59.449219 435.082031 C 58.839844 434.09375 58.171875 433.144531 57.453125 432.234375 C 56.730469 431.320312 55.960938 430.453125 55.140625 429.632812 C 53.742188 428.210938 52.21875 426.945312 50.566406 425.828125 C 48.914062 424.710938 47.167969 423.769531 45.328125 423.003906 C 43.492188 422.234375 41.59375 421.65625 39.636719 421.269531 C 37.683594 420.882812 35.710938 420.691406 33.714844 420.695312 Z M 14.28125 431.527344 C 14.679688 431.128906 15.089844 430.742188 15.511719 430.371094 C 15.933594 429.996094 16.367188 429.636719 16.8125 429.292969 C 17.253906 428.945312 17.707031 428.613281 18.171875 428.296875 C 18.636719 427.976562 19.109375 427.675781 19.59375 427.386719 C 20.074219 427.097656 20.566406 426.820312 21.066406 426.5625 C 21.566406 426.304688 22.074219 426.0625 22.585938 425.832031 C 23.101562 425.605469 23.621094 425.394531 24.148438 425.195312 C 24.675781 425 25.210938 424.820312 25.75 424.660156 C 26.289062 424.496094 26.832031 424.347656 27.378906 424.21875 C 27.925781 424.089844 28.476562 423.976562 29.03125 423.878906 C 29.585938 423.785156 30.140625 423.707031 30.699219 423.644531 C 31.261719 423.582031 31.820312 423.535156 32.382812 423.507812 C 32.945312 423.480469 33.507812 423.472656 34.070312 423.480469 C 34.632812 423.484375 35.195312 423.511719 35.753906 423.550781 C 36.316406 423.59375 36.875 423.652344 37.433594 423.726562 C 37.992188 423.804688 38.546875 423.898438 39.097656 424.007812 C 39.648438 424.117188 40.199219 424.242188 40.742188 424.386719 C 41.285156 424.53125 41.824219 424.691406 42.359375 424.867188 C 42.894531 425.042969 43.421875 425.238281 43.945312 425.445312 C 44.464844 425.65625 44.980469 425.878906 45.492188 426.121094 C 46 426.363281 46.5 426.617188 46.992188 426.890625 C 47.484375 427.160156 47.96875 427.445312 48.445312 427.746094 C 48.921875 428.050781 49.386719 428.363281 49.839844 428.695312 C 50.296875 429.023438 50.742188 429.367188 51.175781 429.722656 C 51.613281 430.082031 52.035156 430.453125 52.449219 430.835938 C 52.859375 431.21875 53.261719 431.613281 53.648438 432.019531 C 54.035156 432.429688 54.410156 432.847656 54.773438 433.277344 C 55.136719 433.707031 55.484375 434.148438 55.820312 434.601562 C 56.152344 435.054688 56.476562 435.515625 56.78125 435.988281 C 57.089844 436.460938 57.378906 436.941406 57.65625 437.429688 C 57.933594 437.917969 58.195312 438.417969 58.441406 438.921875 C 58.691406 439.429688 58.921875 439.941406 59.136719 440.460938 C 59.351562 440.980469 59.550781 441.507812 59.734375 442.039062 C 59.914062 442.570312 60.082031 443.109375 60.230469 443.652344 C 60.382812 444.195312 60.515625 444.738281 60.632812 445.289062 C 60.746094 445.839844 60.847656 446.394531 60.929688 446.953125 C 61.011719 447.507812 61.078125 448.066406 61.125 448.628906 C 61.171875 449.1875 61.203125 449.75 61.21875 450.3125 C 61.230469 450.875 61.226562 451.4375 61.207031 452 C 61.1875 452.5625 61.148438 453.121094 61.09375 453.683594 C 61.039062 454.242188 60.964844 454.800781 60.875 455.355469 C 60.785156 455.910156 60.679688 456.464844 60.554688 457.011719 C 60.433594 457.5625 60.292969 458.105469 60.136719 458.644531 C 59.980469 459.1875 59.804688 459.722656 59.617188 460.25 C 59.425781 460.78125 59.21875 461.304688 59 461.820312 C 58.777344 462.339844 58.539062 462.847656 58.285156 463.351562 C 58.03125 463.855469 57.765625 464.347656 57.480469 464.835938 C 57.199219 465.320312 56.898438 465.796875 56.585938 466.265625 C 56.273438 466.734375 55.945312 467.191406 55.605469 467.636719 C 55.265625 468.085938 54.910156 468.523438 54.542969 468.949219 C 54.175781 469.375 53.796875 469.789062 53.402344 470.191406 C 53.007812 470.59375 52.605469 470.984375 52.1875 471.363281 C 51.769531 471.738281 51.34375 472.105469 50.902344 472.457031 C 50.464844 472.808594 50.011719 473.144531 49.554688 473.46875 C 49.09375 473.792969 48.625 474.101562 48.144531 474.398438 C 47.664062 474.691406 47.175781 474.972656 46.679688 475.238281 C 46.183594 475.503906 45.679688 475.75 45.167969 475.984375 C 44.65625 476.21875 44.140625 476.4375 43.613281 476.640625 C 43.089844 476.84375 42.558594 477.027344 42.023438 477.199219 C 41.484375 477.367188 40.945312 477.523438 40.398438 477.660156 C 39.851562 477.792969 39.304688 477.914062 38.75 478.015625 C 38.195312 478.121094 37.640625 478.207031 37.082031 478.273438 C 36.523438 478.34375 35.964844 478.394531 35.402344 478.429688 C 34.839844 478.464844 34.277344 478.480469 33.714844 478.480469 C 32.363281 478.480469 31.019531 478.378906 29.679688 478.183594 C 28.34375 477.984375 27.027344 477.6875 25.734375 477.292969 C 24.4375 476.902344 23.179688 476.414062 21.957031 475.835938 C 20.734375 475.257812 19.5625 474.59375 18.4375 473.839844 C 17.3125 473.089844 16.25 472.257812 15.25 471.351562 C 14.246094 470.441406 13.316406 469.464844 12.460938 468.417969 C 11.601562 467.375 10.824219 466.269531 10.132812 465.109375 C 9.4375 463.949219 8.828125 462.746094 8.3125 461.496094 C 7.796875 460.246094 7.371094 458.964844 7.042969 457.652344 C 6.714844 456.339844 6.484375 455.011719 6.355469 453.667969 C 6.222656 452.320312 6.1875 450.972656 6.257812 449.621094 C 6.324219 448.269531 6.488281 446.933594 6.753906 445.605469 C 7.015625 444.277344 7.375 442.980469 7.832031 441.707031 C 8.289062 440.433594 8.835938 439.199219 9.472656 438.007812 C 10.113281 436.816406 10.832031 435.675781 11.640625 434.589844 C 12.445312 433.503906 13.328125 432.480469 14.28125 431.527344 Z M 14.28125 431.527344 " fill-opacity="1" fill-rule="nonzero"/><g mask="url(#d6396087c3)"><g transform="matrix(1, 0, 0, 1, 17, 434)"><g clip-path="url(#e374f357b4)"><g clip-path="url(#b6323c078a)"><path fill="#000000" d="M 16.714844 32.78125 C 15.679688 32.78125 14.652344 32.679688 13.636719 32.476562 C 12.621094 32.277344 11.632812 31.976562 10.675781 31.578125 C 9.71875 31.183594 8.808594 30.695312 7.949219 30.121094 C 7.085938 29.546875 6.289062 28.890625 5.554688 28.160156 C 4.824219 27.425781 4.167969 26.628906 3.59375 25.765625 C 3.015625 24.90625 2.53125 23.996094 2.132812 23.039062 C 1.738281 22.082031 1.4375 21.09375 1.238281 20.078125 C 1.035156 19.0625 0.933594 18.035156 0.933594 17 C 0.933594 15.960938 1.035156 14.9375 1.238281 13.917969 C 1.4375 12.902344 1.738281 11.914062 2.132812 10.957031 C 2.53125 10 3.015625 9.089844 3.59375 8.230469 C 4.167969 7.367188 4.824219 6.570312 5.554688 5.839844 C 6.289062 5.105469 7.085938 4.449219 7.949219 3.875 C 8.808594 3.300781 9.71875 2.8125 10.675781 2.417969 C 11.632812 2.019531 12.621094 1.722656 13.636719 1.519531 C 14.652344 1.316406 15.679688 1.214844 16.714844 1.214844 C 17.753906 1.214844 18.777344 1.316406 19.796875 1.519531 C 20.8125 1.722656 21.796875 2.019531 22.757812 2.417969 C 23.714844 2.8125 24.625 3.300781 25.484375 3.875 C 26.347656 4.453125 27.144531 5.105469 27.875 5.839844 C 28.609375 6.570312 29.261719 7.367188 29.839844 8.230469 C 30.414062 9.089844 30.902344 10 31.296875 10.957031 C 31.695312 11.914062 31.992188 12.902344 32.195312 13.917969 C 32.398438 14.9375 32.5 15.960938 32.5 17 C 32.5 18.035156 32.398438 19.0625 32.195312 20.078125 C 31.992188 21.09375 31.695312 22.082031 31.296875 23.039062 C 30.902344 23.996094 30.414062 24.90625 29.839844 25.765625 C 29.261719 26.628906 28.609375 27.425781 27.875 28.160156 C 27.144531 28.890625 26.347656 29.546875 25.484375 30.121094 C 24.625 30.695312 23.714844 31.183594 22.757812 31.578125 C 21.796875 31.976562 20.8125 32.277344 19.796875 32.476562 C 18.777344 32.679688 17.753906 32.78125 16.714844 32.78125 Z M 16.714844 32.78125 " fill-opacity="1" fill-rule="evenodd"/></g></g></g></g><g clip-path="url(#23d9787855)"><path fill="#000000" d="M 760.71875 76.804688 L 737.320312 76.804688 L 704.691406 109.988281 L 728.011719 109.988281 Z M 760.71875 76.804688 " fill-opacity="1" fill-rule="evenodd"/></g><g clip-path="url(#adc88129d1)"><path fill="#000000" d="M 716.230469 76.804688 L 692.832031 76.804688 L 660.183594 109.988281 L 683.503906 109.988281 Z M 716.230469 76.804688 " fill-opacity="1" fill-rule="evenodd"/></g><g fill="#ff66c4" fill-opacity="1"><g transform="translate(151.894768, 441.101221)"><g><path d="M 32 0 L 7.625 0 C 6.5 0 5.472656 -0.269531 4.546875 -0.8125 C 3.617188 -1.363281 2.882812 -2.101562 2.34375 -3.03125 C 1.800781 -3.957031 1.53125 -4.976562 1.53125 -6.09375 L 1.53125 -24.375 C 1.53125 -25.5 1.800781 -26.523438 2.34375 -27.453125 C 2.882812 -28.378906 3.617188 -29.113281 4.546875 -29.65625 C 5.472656 -30.195312 6.5 -30.46875 7.625 -30.46875 L 32 -30.46875 L 32 -24.375 L 7.625 -24.375 L 7.625 -6.09375 L 32 -6.09375 Z M 32 0 "/></g></g></g><g fill="#ff66c4" fill-opacity="1"><g transform="translate(185.413334, 441.101221)"><g><path d="M 25.90625 -18.28125 L 25.90625 -30.46875 L 32 -30.46875 L 32 -6.09375 C 32 -4.976562 31.722656 -3.957031 31.171875 -3.03125 C 30.628906 -2.101562 29.894531 -1.363281 28.96875 -0.8125 C 28.039062 -0.269531 27.019531 0 25.90625 0 L 1.53125 0 L 1.53125 -6.09375 L 25.90625 -6.09375 L 25.90625 -12.1875 L 7.625 -12.1875 C 6.5 -12.1875 5.472656 -12.457031 4.546875 -13 C 3.617188 -13.550781 2.882812 -14.289062 2.34375 -15.21875 C 1.800781 -16.144531 1.53125 -17.164062 1.53125 -18.28125 L 1.53125 -30.46875 L 7.625 -30.46875 L 7.625 -18.28125 Z M 25.90625 -18.28125 "/></g></g></g><g fill="#ff66c4" fill-opacity="1"><g transform="translate(218.931899, 441.101221)"><g><path d="M 32 -24.375 L 32 -18.28125 C 32 -17.445312 31.695312 -16.726562 31.09375 -16.125 C 30.5 -15.53125 29.785156 -15.234375 28.953125 -15.234375 C 29.785156 -15.234375 30.5 -14.9375 31.09375 -14.34375 C 31.695312 -13.75 32 -13.03125 32 -12.1875 L 32 -6.09375 C 32 -5 31.722656 -3.988281 31.171875 -3.0625 C 30.628906 -2.132812 29.898438 -1.390625 28.984375 -0.828125 C 28.078125 -0.273438 27.050781 0 25.90625 0 L 1.53125 0 L 1.53125 -30.46875 L 25.90625 -30.46875 C 27.050781 -30.46875 28.078125 -30.1875 28.984375 -29.625 C 29.898438 -29.070312 30.628906 -28.335938 31.171875 -27.421875 C 31.722656 -26.515625 32 -25.5 32 -24.375 Z M 25.90625 -24.375 L 7.625 -24.375 L 7.625 -18.28125 L 25.90625 -18.28125 Z M 7.625 -6.09375 L 25.90625 -6.09375 L 25.90625 -12.1875 L 7.625 -12.1875 Z M 7.625 -6.09375 "/></g></g></g><g fill="#ff66c4" fill-opacity="1"><g transform="translate(252.450465, 441.101221)"><g><path d="M 32 -30.46875 L 32 -24.375 L 7.625 -24.375 L 7.625 -18.28125 L 32 -18.28125 L 32 -12.1875 L 7.625 -12.1875 L 7.625 -6.09375 L 32 -6.09375 L 32 0 L 7.625 0 C 6.5 0 5.472656 -0.269531 4.546875 -0.8125 C 3.617188 -1.363281 2.882812 -2.101562 2.34375 -3.03125 C 1.800781 -3.957031 1.53125 -4.976562 1.53125 -6.09375 L 1.53125 -24.375 C 1.53125 -25.5 1.800781 -26.523438 2.34375 -27.453125 C 2.882812 -28.378906 3.617188 -29.113281 4.546875 -29.65625 C 5.472656 -30.195312 6.5 -30.46875 7.625 -30.46875 Z M 32 -30.46875 "/></g></g></g><g fill="#ff66c4" fill-opacity="1"><g transform="translate(285.969031, 441.101221)"><g><path d="M 32 -24.375 L 32 -18.28125 C 32 -17.164062 31.722656 -16.144531 31.171875 -15.21875 C 30.628906 -14.289062 29.894531 -13.550781 28.96875 -13 C 28.039062 -12.457031 27.019531 -12.1875 25.90625 -12.1875 L 19.8125 -12.1875 L 25.90625 -6.09375 L 32 -6.09375 L 32 0 L 24.6875 0 C 23.820312 0 23.082031 -0.304688 22.46875 -0.921875 L 11.203125 -12.1875 L 7.625 -12.1875 L 7.625 0 L 1.53125 0 L 1.53125 -30.46875 L 25.90625 -30.46875 C 27.019531 -30.46875 28.039062 -30.195312 28.96875 -29.65625 C 29.894531 -29.113281 30.628906 -28.378906 31.171875 -27.453125 C 31.722656 -26.523438 32 -25.5 32 -24.375 Z M 25.90625 -24.375 L 7.625 -24.375 L 7.625 -18.28125 L 25.90625 -18.28125 Z M 25.90625 -24.375 "/></g></g></g></svg>